<?xml version="1.0" standalone="no"?>
<!DOCTYPE svg PUBLIC "-//W3C//DTD SVG 20010904//EN"
 "http://www.w3.org/TR/2001/REC-SVG-20010904/DTD/svg10.dtd">
<svg version="1.0" xmlns="http://www.w3.org/2000/svg"
 width="100.000000pt" height="100.000000pt" viewBox="0 0 100.000000 100.000000"
 preserveAspectRatio="xMidYMid meet">
<metadata>
Created by potrace 1.11, written by Peter Selinger 2001-2013
</metadata>
<g transform="translate(0.000000,100.000000) scale(0.100000,-0.100000)"
fill="#000000" stroke="none">
<path d="M7 943 c-4 -3 -7 -25 -7 -48 0 -29 6 -47 20 -60 11 -10 20 -29 20
-42 0 -12 9 -32 20 -43 11 -11 20 -28 20 -38 0 -9 11 -29 25 -44 14 -15 25
-34 25 -42 0 -24 59 -78 93 -85 l32 -7 -34 -17 c-19 -9 -39 -17 -45 -17 -19 0
-46 -38 -46 -65 0 -13 -5 -27 -10 -30 -13 -8 -13 -52 0 -60 5 -3 6 -13 3 -22
-4 -9 1 -21 10 -28 15 -11 15 -14 -3 -30 -25 -23 -25 -41 0 -57 12 -8 20 -24
20 -40 0 -18 5 -28 14 -28 8 0 16 -10 18 -22 2 -15 11 -24 26 -26 14 -2 22
-10 22 -23 0 -18 6 -19 57 -17 55 3 59 5 72 35 8 18 19 33 24 33 25 0 46 47
47 105 1 33 7 76 14 95 13 35 13 35 27 12 20 -31 36 -27 44 10 l8 33 18 -45
c10 -25 18 -71 18 -102 1 -52 4 -61 36 -94 19 -19 35 -40 35 -46 0 -28 64 -50
73 -25 4 9 6 9 6 0 2 -25 49 -13 85 22 20 19 36 39 36 45 0 5 7 10 15 10 15 0
38 34 28 43 -3 3 -1 19 5 35 8 22 7 37 -3 56 -8 14 -9 26 -4 26 9 0 10 12 9
90 0 14 -1 37 -1 52 0 33 -37 65 -85 74 -45 8 -51 21 -14 29 16 4 30 11 30 16
0 5 11 19 25 31 14 12 25 26 25 32 0 6 12 22 25 35 15 14 25 34 25 51 0 20 6
31 20 35 12 4 20 15 20 29 0 13 11 36 25 52 26 31 32 72 15 105 -9 16 -22 19
-82 19 -61 0 -82 -5 -137 -32 -57 -28 -161 -115 -161 -133 0 -4 -11 -21 -24
-38 -13 -18 -33 -49 -44 -70 -19 -36 -21 -37 -31 -18 -16 29 17 165 47 198 26
28 27 33 9 33 -20 0 -56 -71 -63 -124 -4 -25 -10 -46 -14 -46 -4 0 -16 27 -26
60 -18 60 -57 121 -69 108 -4 -4 2 -16 13 -28 22 -24 32 -46 57 -132 16 -52
16 -58 1 -79 -13 -19 -16 -20 -16 -6 0 20 -50 120 -62 125 -4 2 -8 8 -8 13 0
21 -80 102 -119 123 -17 9 -44 23 -60 31 -30 15 -181 22 -194 8z m286 -400
c-7 -2 -19 -2 -25 0 -7 3 -2 5 12 5 14 0 19 -2 13 -5z"/>
</g>
</svg>
